<?xml version="1.0" encoding="utf-8"?>
<!-- Generator: Adobe Illustrator 16.0.0, SVG Export Plug-In . SVG Version: 6.00 Build 0)  -->
<!DOCTYPE svg PUBLIC "-//W3C//DTD SVG 1.1//EN" "http://www.w3.org/Graphics/SVG/1.1/DTD/svg11.dtd" [
	<!ENTITY ns_flows "http://ns.adobe.com/Flows/1.0/">
	<!ENTITY ns_extend "http://ns.adobe.com/Extensibility/1.0/">
	<!ENTITY ns_ai "http://ns.adobe.com/AdobeIllustrator/10.0/">
	<!ENTITY ns_graphs "http://ns.adobe.com/Graphs/1.0/">
]>
<svg version="1.1" xmlns:x="&ns_extend;" xmlns:i="&ns_ai;" xmlns:graph="&ns_graphs;"
	 xmlns="http://www.w3.org/2000/svg" xmlns:xlink="http://www.w3.org/1999/xlink" xmlns:a="http://ns.adobe.com/AdobeSVGViewerExtensions/3.0/"
	 x="0px" y="0px" width="750px" height="750px" viewBox="0 0 750 750" style="enable-background:new 0 0 750 750;"
	 xml:space="preserve">
<style type="text/css">
<![CDATA[
	.st0{display:none;clip-path:url(#SVGID_2_);}
	.st1{clip-path:url(#outline_5_);}
	.st2{clip-path:url(#outline_7_);}
	.st3{display:none;fill:#FCFCFC;}
	.st4{fill:#495153;}
	.st5{clip-path:url(#SVGID_4_);fill:#6E93C6;}
	.st6{clip-path:url(#SVGID_12_);fill:#4574B6;}
	.st7{clip-path:url(#SVGID_8_);fill:#C1D0E6;}
	.st8{display:inline;fill:#82CCAA;}
	.st9{fill:#E4E9EF;}
	.st10{clip-path:url(#SVGID_8_);fill:#97B2D6;}
	.st11{fill:#E9EDEE;}
	.st12{fill:#1C56A6;}
	.st13{clip-path:url(#bg_3_);}
	.st14{fill:#586265;}
	.st15{clip-path:url(#SVGID_8_);fill:#6E93C6;}
	.st16{fill:#F6F8F8;}
	.st17{clip-path:url(#SVGID_2_);}
	.st18{clip-path:url(#SVGID_6_);}
	.st19{fill:#C1D0E6;}
	.st20{opacity:0.1;clip-path:url(#bg_3_);}
	.st21{display:none;fill:#495153;}
	.st22{fill:#97B2D6;}
	.st23{clip-path:url(#SVGID_12_);fill:#C1D0E6;}
	.st24{fill:#FCFCFC;}
	.st25{fill:#FFFFFF;}
	.st26{clip-path:url(#SVGID_2_);fill:#F6F8F8;}
	.st27{fill:none;}
	.st28{display:inline;}
	.st29{display:inline;fill:#3C4344;}
	.st30{fill:#6E93C6;}
	.st31{clip-path:url(#SVGID_4_);fill:#C1D0E6;}
	.st32{fill:#D1DBE8;}
	.st33{display:none;fill:#586265;}
	.st34{clip-path:url(#SVGID_4_);fill:#97B2D6;}
	.st35{display:none;}
	.st36{clip-path:url(#SVGID_6_);fill:#F6F8F8;}
	.st37{clip-path:url(#SVGID_10_);}
	.st38{clip-path:url(#SVGID_12_);}
	.st39{display:inline;fill:#ABDDC6;}
	.st40{fill:#0E2241;}
	.st41{display:inline;fill:#495153;}
	.st42{opacity:0.4;clip-path:url(#bg_3_);fill:#1C56A6;}
	.st43{fill:#4574B6;}
]]>
</style>
<g id="Layer_1">
	<g id="mk_3">
		<defs>
			<rect id="outline_1_" x="-1768" y="-2" width="1536" height="752"/>
		</defs>
		<clipPath id="outline_5_">
			<use xlink:href="#outline_1_"  style="overflow:visible;"/>
		</clipPath>
		<g id="diagonal_2_" class="st1">
			<g>
				<polygon class="st9" points="-466.334,-5 -1040.002,755 -374.002,755 201.998,-5 				"/>
				<polygon class="st32" points="658.648,-6 -80.002,-5 -656.002,755 84.979,754 				"/>
			</g>
		</g>
	</g>
	<g id="mk_3_square">
		<defs>
			<rect id="outline_2_" y="-2" width="750" height="752"/>
		</defs>
		<clipPath id="outline_7_">
			<use xlink:href="#outline_2_"  style="overflow:visible;"/>
		</clipPath>
		<g id="diagonal_1_" class="st2">
			<g>
				<polygon class="st32" points="753.998,-5 177.999,755 788.979,755 1362.648,-5 				"/>
				<polygon class="st9" points="1118.666,-5 544.998,755 1210.998,755 1786.998,-5 				"/>
			</g>
			<polygon id="triangle_3_" class="st9" points="181.979,755 -408.001,755 165.666,-5 755.648,-5 			"/>
		</g>
		<g id="blue_3_" class="st2">
			<path class="st43" d="M-1335.293,669.502l181.891-240.2c33.205-46.746,32.219-64.776,0-110.333l-181.891-248.527
				C-1365.556,25.125-1328.988-50-1265.941-50H95.556c46.024,0,71.559,15.732,93.625,42.842L445.5,341.515
				c29.25,38.5,28.381,26.78-1,66.993L189.181,744.336C160.282,783.113,135.481,800,95.556,800h-1348.679
				C-1334.664,800-1372.805,722.777-1335.293,669.502z"/>
		</g>
		<g id="trail_4_" class="st2">
			<path class="st22" d="M-211.49,442c-9.054,0-12.032-6.02-6.62-13.277l29.729-39.902c5.412-7.258,5.437-19.172,0.054-26.45
				l-29.836-40.239c-5.383-7.279-2.38-13.131,6.674-13.131H123.8c9.054,0,12.066-6.078,6.695-13.365l-27.325-37.229
				c-5.371-7.288-2.358-13.406,6.695-13.406h218.668c9.054,0,20.853,6.062,26.219,13.354l76.512,103.988
				c5.366,7.291,5.254,19.161-0.251,26.349l-76.01,99.239c-5.505,7.188-17.416,13.07-26.47,13.07H109.865
				c-9.054,0-11.863-5.797-6.244-12.896l26.422-33.286c5.62-7.098,2.811-12.818-6.243-12.818H-211.49z"/>
		</g>
		<g id="logo_1_" class="st2">
			<g id="outline_4_">
				<path class="st12" d="M156.271,421.443l28.699-37.883c5.238-7.375,5.083-10.211,0-17.399l-28.699-39.187
					c-4.775-7.15,0.994-18.975,10.942-18.975h214.823c7.262,0,11.29,2.458,14.772,6.736l37.802,51.432
					c4.675,6.316,4.168,11.823-0.235,18.339l-37.206,48.28c-4.561,6.119-8.833,9.213-15.133,9.213H169.235
					C156.369,442,150.351,429.85,156.271,421.443z"/>
			</g>
			<g id="initials_4_">
				<g>
					<polygon class="st25" points="300,330 300,347 325,347 325,421 344,421 344,347 368,347 368,330 					"/>
					<path class="st25" d="M223,421v-91h42.783c11.953,0,25.868,12.024,25.868,29.089c0,24.676-21.593,28.44-21.593,28.44
						L293.662,421h-24.51l-20.954-32H243v32H223z M243,348v24h15.894c8.684,0,11.7-6.969,11.7-12.938
						c0-4.393-4.86-11.062-11.7-11.062H243z"/>
				</g>
			</g>
		</g>
		<g id="name_1_" class="st2">
			<g>
				<path class="st24" d="M538.134,120c0,24.75-22.5,45-50,45H261.11c-27.5,0-50-20.25-50-45s22.5-45,50-45h227.023
					C515.634,75,538.134,95.25,538.134,120z"/>
			</g>
			<g>
				<path class="st12" d="M289.741,130h-5.774l-3.186-8.295c-0.257-0.653-0.647-1.108-1.172-1.365
					c-0.525-0.256-1.185-0.385-1.978-0.385h-3.535V130h-5.39v-24.92h11.095c2.893,0,5.086,0.63,6.58,1.89
					c1.493,1.261,2.24,3.068,2.24,5.425c0,1.657-0.438,3.08-1.312,4.271s-2.13,2.042-3.763,2.555
					c1.47,0.304,2.531,1.318,3.185,3.045L289.741,130z M278.997,115.79c1.562,0,2.706-0.263,3.43-0.787
					c0.723-0.525,1.085-1.348,1.085-2.468s-0.362-1.942-1.085-2.468c-0.724-0.524-1.867-0.787-3.43-0.787h-4.971v6.51H278.997z"/>
				<path class="st12" d="M310.916,112.255V130h-5.215v-2.625c-0.537,0.91-1.295,1.622-2.275,2.135
					c-0.979,0.514-2.088,0.771-3.325,0.771c-1.54,0-2.899-0.373-4.077-1.12c-1.179-0.747-2.1-1.814-2.765-3.203
					c-0.665-1.388-0.998-2.992-0.998-4.812c0-1.819,0.333-3.441,0.998-4.864s1.592-2.525,2.782-3.308
					c1.19-0.781,2.543-1.173,4.06-1.173c1.237,0,2.346,0.269,3.325,0.806c0.98,0.536,1.738,1.26,2.275,2.17v-2.521H310.916z
					 M304.651,124.925c0.699-0.887,1.05-2.17,1.05-3.85c0-1.681-0.351-2.969-1.05-3.868c-0.7-0.897-1.704-1.347-3.011-1.347
					s-2.321,0.467-3.045,1.399c-0.724,0.934-1.085,2.229-1.085,3.885c0,1.657,0.355,2.923,1.067,3.798s1.732,1.312,3.062,1.312
					C302.947,126.255,303.951,125.812,304.651,124.925z"/>
				<path class="st12" d="M341.418,113.638c0.992,1.225,1.488,3.098,1.488,5.617V130h-5.285v-10.57c0-1.236-0.199-2.129-0.596-2.677
					c-0.396-0.549-1.05-0.823-1.96-0.823c-1.073,0-1.901,0.374-2.484,1.12c-0.584,0.747-0.875,1.797-0.875,3.15v9.8h-5.285v-10.57
					c0-1.213-0.205-2.1-0.612-2.66c-0.409-0.56-1.057-0.84-1.942-0.84c-1.074,0-1.908,0.374-2.503,1.12
					c-0.595,0.747-0.893,1.797-0.893,3.15v9.8h-5.285v-12.67c0-1.89-0.094-3.582-0.279-5.075h4.97l0.314,2.66
					c0.537-1.003,1.289-1.773,2.258-2.31c0.968-0.537,2.083-0.806,3.343-0.806c2.637,0,4.387,1.098,5.25,3.29
					c0.583-1.003,1.394-1.803,2.433-2.397c1.038-0.595,2.175-0.893,3.412-0.893C338.916,111.8,340.426,112.412,341.418,113.638z"/>
				<path class="st12" d="M350.588,129.16c-1.412-0.747-2.497-1.82-3.255-3.22c-0.759-1.4-1.138-3.033-1.138-4.9
					c0-1.866,0.379-3.5,1.138-4.9c0.758-1.399,1.843-2.473,3.255-3.22c1.412-0.746,3.062-1.12,4.953-1.12
					c1.866,0,3.5,0.374,4.899,1.12c1.4,0.747,2.479,1.82,3.237,3.22c0.758,1.4,1.138,3.034,1.138,4.9c0,1.867-0.38,3.5-1.138,4.9
					c-0.758,1.399-1.837,2.473-3.237,3.22c-1.399,0.747-3.033,1.12-4.899,1.12C353.65,130.28,352,129.907,350.588,129.16z
					 M358.533,124.96c0.688-0.863,1.032-2.17,1.032-3.92c0-1.727-0.345-3.027-1.032-3.902c-0.688-0.875-1.687-1.312-2.992-1.312
					c-1.33,0-2.346,0.438-3.046,1.312c-0.699,0.875-1.05,2.176-1.05,3.902c0,3.477,1.365,5.215,4.096,5.215
					C356.847,126.255,357.845,125.823,358.533,124.96z"/>
				<path class="st12" d="M385.465,119.255V130h-5.284v-10.5c0-1.236-0.228-2.141-0.683-2.713c-0.455-0.571-1.173-0.857-2.153-0.857
					c-1.167,0-2.1,0.374-2.8,1.12c-0.7,0.747-1.05,1.75-1.05,3.01V130h-5.285v-12.67c0-1.89-0.094-3.582-0.279-5.075h4.97l0.35,2.8
					c0.63-1.05,1.453-1.854,2.468-2.415c1.015-0.56,2.164-0.84,3.447-0.84C383.365,111.8,385.465,114.285,385.465,119.255z"/>
				<path class="st12" d="M405.59,130v-20.475h-7.805v-4.445h21.14v4.445h-7.805V130H405.59z"/>
				<path class="st12" d="M430.859,112.185l-0.034,4.83c-0.864-0.396-1.728-0.595-2.591-0.595c-1.399,0-2.467,0.38-3.202,1.138
					c-0.735,0.759-1.103,1.814-1.103,3.167V130h-5.285v-12.67c0-1.89-0.094-3.582-0.279-5.075h4.97l0.35,3.045
					c0.443-1.12,1.138-1.978,2.083-2.572c0.944-0.595,2.012-0.893,3.202-0.893C429.716,111.835,430.347,111.952,430.859,112.185z"/>
				<path class="st12" d="M432.819,103.925h5.635v4.97h-5.635V103.925z M432.994,130v-17.745h5.285V130H432.994z"/>
				<path class="st12" d="M460.539,112.255v16.94c0,2.822-0.816,4.97-2.45,6.439c-1.633,1.471-4.013,2.205-7.14,2.205
					c-2.823,0-5.273-0.549-7.35-1.645l0.805-3.92c2.146,1.072,4.27,1.609,6.37,1.609c1.517,0,2.647-0.355,3.395-1.067
					s1.12-1.791,1.12-3.237v-3.08c-0.56,0.863-1.342,1.581-2.345,2.152c-1.004,0.572-2.112,0.857-3.325,0.857
					c-1.54,0-2.905-0.367-4.095-1.103c-1.19-0.734-2.124-1.772-2.8-3.114c-0.678-1.342-1.016-2.888-1.016-4.638
					s0.338-3.296,1.016-4.638c0.676-1.342,1.609-2.38,2.8-3.115c1.189-0.734,2.555-1.103,4.095-1.103
					c1.236,0,2.356,0.269,3.36,0.806c1.003,0.536,1.772,1.26,2.31,2.17v-2.521H460.539z M454.187,124.207
					c0.735-0.851,1.103-2.035,1.103-3.552c0-1.493-0.362-2.666-1.085-3.518c-0.724-0.852-1.738-1.277-3.045-1.277
					s-2.333,0.426-3.08,1.277s-1.12,2.024-1.12,3.518s0.373,2.672,1.12,3.535s1.773,1.295,3.08,1.295
					C452.442,125.485,453.452,125.06,454.187,124.207z"/>
				<path class="st12" d="M468.291,129.16c-1.412-0.747-2.497-1.82-3.255-3.22c-0.759-1.4-1.138-3.033-1.138-4.9
					c0-1.866,0.379-3.5,1.138-4.9c0.758-1.399,1.843-2.473,3.255-3.22c1.412-0.746,3.062-1.12,4.953-1.12
					c1.866,0,3.5,0.374,4.899,1.12c1.4,0.747,2.479,1.82,3.237,3.22c0.758,1.4,1.138,3.034,1.138,4.9c0,1.867-0.38,3.5-1.138,4.9
					c-0.758,1.399-1.837,2.473-3.237,3.22c-1.399,0.747-3.033,1.12-4.899,1.12C471.354,130.28,469.703,129.907,468.291,129.16z
					 M476.236,124.96c0.688-0.863,1.032-2.17,1.032-3.92c0-1.727-0.345-3.027-1.032-3.902c-0.688-0.875-1.687-1.312-2.992-1.312
					c-1.33,0-2.346,0.438-3.046,1.312c-0.699,0.875-1.05,2.176-1.05,3.902c0,3.477,1.365,5.215,4.096,5.215
					C474.55,126.255,475.548,125.823,476.236,124.96z"/>
			</g>
		</g>
	</g>
</g>
</svg>
