<?xml version="1.0" encoding="utf-8"?>
<!-- Generator: Adobe Illustrator 16.0.0, SVG Export Plug-In . SVG Version: 6.00 Build 0)  -->
<!DOCTYPE svg PUBLIC "-//W3C//DTD SVG 1.1//EN" "http://www.w3.org/Graphics/SVG/1.1/DTD/svg11.dtd" [
	<!ENTITY ns_flows "http://ns.adobe.com/Flows/1.0/">
	<!ENTITY ns_extend "http://ns.adobe.com/Extensibility/1.0/">
	<!ENTITY ns_ai "http://ns.adobe.com/AdobeIllustrator/10.0/">
	<!ENTITY ns_graphs "http://ns.adobe.com/Graphs/1.0/">
]>
<svg version="1.1" xmlns:x="&ns_extend;" xmlns:i="&ns_ai;" xmlns:graph="&ns_graphs;"
	 xmlns="http://www.w3.org/2000/svg" xmlns:xlink="http://www.w3.org/1999/xlink" xmlns:a="http://ns.adobe.com/AdobeSVGViewerExtensions/3.0/"
	 x="0px" y="0px" width="1536px" height="750px" viewBox="0 0 1536 750" style="enable-background:new 0 0 1536 750;"
	 xml:space="preserve">
<style type="text/css">
<![CDATA[
	.st0{display:none;clip-path:url(#SVGID_2_);}
	.st1{clip-path:url(#outline_5_);}
	.st2{clip-path:url(#outline_7_);}
	.st3{display:none;fill:#FCFCFC;}
	.st4{fill:#495153;}
	.st5{clip-path:url(#SVGID_4_);fill:#6E93C6;}
	.st6{clip-path:url(#SVGID_12_);fill:#4574B6;}
	.st7{clip-path:url(#SVGID_8_);fill:#C1D0E6;}
	.st8{display:inline;fill:#82CCAA;}
	.st9{fill:#E4E9EF;}
	.st10{clip-path:url(#SVGID_8_);fill:#97B2D6;}
	.st11{fill:#E9EDEE;}
	.st12{fill:#1C56A6;}
	.st13{clip-path:url(#bg_3_);}
	.st14{fill:#586265;}
	.st15{clip-path:url(#SVGID_8_);fill:#6E93C6;}
	.st16{fill:#F6F8F8;}
	.st17{clip-path:url(#SVGID_2_);}
	.st18{clip-path:url(#SVGID_6_);}
	.st19{fill:#C1D0E6;}
	.st20{opacity:0.1;clip-path:url(#bg_3_);}
	.st21{display:none;fill:#495153;}
	.st22{fill:#97B2D6;}
	.st23{clip-path:url(#SVGID_12_);fill:#C1D0E6;}
	.st24{fill:#FCFCFC;}
	.st25{fill:#FFFFFF;}
	.st26{clip-path:url(#SVGID_2_);fill:#F6F8F8;}
	.st27{fill:none;}
	.st28{display:inline;}
	.st29{display:inline;fill:#3C4344;}
	.st30{fill:#6E93C6;}
	.st31{clip-path:url(#SVGID_4_);fill:#C1D0E6;}
	.st32{fill:#D1DBE8;}
	.st33{display:none;fill:#586265;}
	.st34{clip-path:url(#SVGID_4_);fill:#97B2D6;}
	.st35{display:none;}
	.st36{clip-path:url(#SVGID_6_);fill:#F6F8F8;}
	.st37{clip-path:url(#SVGID_10_);}
	.st38{clip-path:url(#SVGID_12_);}
	.st39{display:inline;fill:#ABDDC6;}
	.st40{fill:#0E2241;}
	.st41{display:inline;fill:#495153;}
	.st42{opacity:0.4;clip-path:url(#bg_3_);fill:#1C56A6;}
	.st43{fill:#4574B6;}
]]>
</style>
<g id="Layer_1">
	<g id="mk_3">
		<defs>
			<rect id="outline_1_" y="-2" width="1536" height="752"/>
		</defs>
		<clipPath id="outline_5_">
			<use xlink:href="#outline_1_"  style="overflow:visible;"/>
		</clipPath>
		<g id="diagonal_2_" class="st1">
			<g>
				<polygon class="st32" points="939.998,-5 363.999,755 974.979,755 1548.648,-5 				"/>
				<polygon class="st9" points="1301.666,-5 727.998,755 1393.998,755 1969.998,-5 				"/>
				<polygon class="st32" points="2426.648,-6 1687.998,-5 1111.998,755 1852.979,754 				"/>
			</g>
			<polygon id="triangle_2_" class="st9" points="364.979,755 -225.001,755 348.666,-5 938.648,-5 			"/>
		</g>
		<g id="blue_2_" class="st1">
			<path class="st43" d="M-1151.292,669.502l181.89-240.2c33.206-46.746,32.22-64.776,0-110.333l-181.89-248.527
				C-1181.556,25.125-1144.988-50-1081.941-50H279.556c46.024,0,71.559,15.732,93.625,42.842l252.152,343.173
				c29.633,40.035,30.333,33.993,2.667,71.993L373.181,744.336C344.282,783.113,319.481,800,279.556,800h-1348.679
				C-1150.665,800-1188.805,722.777-1151.292,669.502z"/>
		</g>
		<g id="trail_2_" class="st1">
			<path class="st22" d="M-50.491,442c-9.053,0-12.032-6.02-6.62-13.277l29.729-39.902c5.413-7.258,5.437-19.171,0.053-26.45
				l-29.835-40.24c-5.383-7.278-2.38-13.13,6.673-13.13H284.8c9.053,0,12.066-6.078,6.694-13.365l-27.324-37.229
				c-5.372-7.288-2.359-13.406,6.694-13.406h218.668c9.053,0,20.852,6.062,26.219,13.354l76.511,103.988
				c5.366,7.291,5.254,19.161-0.251,26.349l-76.01,99.239c-5.505,7.188-17.416,13.07-26.469,13.07H270.865
				c-9.053,0-11.863-5.797-6.243-12.896l26.421-33.286c5.62-7.098,2.81-12.818-6.243-12.818H-50.491z"/>
		</g>
		<g id="logo" class="st1">
			<g id="outline">
				<path class="st12" d="M317.271,421.443l28.699-37.883c5.238-7.375,5.083-10.211,0-17.399l-28.699-39.187
					c-4.775-7.15,0.994-18.975,10.942-18.975h214.823c7.262,0,11.29,2.458,14.772,6.736l37.802,51.432
					c4.675,6.316,4.168,11.823-0.235,18.339l-37.206,48.28c-4.561,6.119-8.833,9.213-15.133,9.213H330.235
					C317.369,442,311.351,429.85,317.271,421.443z"/>
			</g>
			<g id="initials">
				<g>
					<polygon class="st25" points="461,330 461,347 486,347 486,421 505,421 505,347 529,347 529,330 					"/>
					<path class="st25" d="M384,421v-91h42.783c11.953,0,25.868,12.024,25.868,29.089c0,24.676-21.593,28.44-21.593,28.44
						L454.662,421h-24.51l-20.954-32H404v32H384z M404,348v24h15.894c8.684,0,11.7-6.969,11.7-12.938
						c0-4.393-4.86-11.062-11.7-11.062H404z"/>
				</g>
			</g>
		</g>
		<g id="name_2_" class="st1">
			<g>
				<path class="st24" d="M1356,377c0,35.898-29.102,65-65,65H934c-35.898,0-65-29.102-65-65v-4c0-35.898,29.102-65,65-65h357
					c35.898,0,65,29.102,65,65V377z"/>
			</g>
			<g>
				<path class="st12" d="M1002.931,385.606h-7.425l-4.096-10.665c-0.33-0.84-0.832-1.425-1.507-1.755
					c-0.676-0.33-1.523-0.495-2.543-0.495h-4.545v12.915h-6.93v-32.04h14.265c3.72,0,6.54,0.81,8.46,2.43s2.88,3.945,2.88,6.976
					c0,2.13-0.562,3.96-1.688,5.49c-1.125,1.529-2.737,2.625-4.837,3.284c1.89,0.391,3.254,1.695,4.095,3.915L1002.931,385.606z
					 M989.115,367.337c2.01,0,3.479-0.338,4.41-1.013c0.93-0.675,1.396-1.732,1.396-3.173c0-1.439-0.466-2.497-1.396-3.173
					c-0.931-0.675-2.4-1.012-4.41-1.012h-6.39v8.37H989.115z"/>
				<path class="st12" d="M1030.155,362.791v22.815h-6.705v-3.375c-0.69,1.17-1.665,2.086-2.926,2.745
					c-1.26,0.659-2.685,0.99-4.274,0.99c-1.98,0-3.729-0.479-5.243-1.44c-1.515-0.96-2.699-2.332-3.555-4.117
					c-0.854-1.785-1.282-3.848-1.282-6.188s0.428-4.425,1.282-6.255c0.855-1.83,2.048-3.247,3.578-4.253
					c1.529-1.005,3.27-1.508,5.22-1.508c1.59,0,3.015,0.346,4.274,1.035c1.261,0.69,2.235,1.62,2.926,2.79v-3.24H1030.155z
					 M1022.1,379.081c0.9-1.14,1.351-2.79,1.351-4.949c0-2.16-0.45-3.817-1.351-4.973c-0.899-1.154-2.19-1.732-3.87-1.732
					s-2.985,0.601-3.915,1.8c-0.93,1.2-1.395,2.865-1.395,4.995s0.457,3.757,1.372,4.882s2.228,1.688,3.938,1.688
					C1019.909,380.791,1021.2,380.222,1022.1,379.081z"/>
				<path class="st12" d="M1069.372,364.569c1.274,1.574,1.912,3.982,1.912,7.222v13.815h-6.795v-13.59
					c0-1.59-0.255-2.737-0.765-3.442c-0.511-0.705-1.351-1.058-2.521-1.058c-1.38,0-2.445,0.48-3.194,1.439
					c-0.751,0.961-1.125,2.311-1.125,4.051v12.6h-6.795v-13.59c0-1.56-0.264-2.7-0.788-3.42c-0.525-0.721-1.357-1.08-2.497-1.08
					c-1.381,0-2.453,0.48-3.218,1.439c-0.765,0.961-1.147,2.311-1.147,4.051v12.6h-6.795v-16.29c0-2.43-0.12-4.604-0.36-6.525h6.391
					l0.404,3.421c0.69-1.29,1.657-2.28,2.902-2.971c1.245-0.689,2.678-1.035,4.298-1.035c3.39,0,5.64,1.411,6.75,4.23
					c0.75-1.29,1.792-2.317,3.128-3.083c1.334-0.765,2.797-1.147,4.387-1.147C1066.154,362.206,1068.097,362.994,1069.372,364.569z"
					/>
				<path class="st12" d="M1081.162,384.526c-1.815-0.96-3.211-2.34-4.186-4.14s-1.462-3.899-1.462-6.3s0.487-4.5,1.462-6.301
					c0.975-1.8,2.37-3.18,4.186-4.14c1.814-0.96,3.938-1.44,6.367-1.44c2.4,0,4.5,0.48,6.3,1.44c1.801,0.96,3.188,2.34,4.163,4.14
					c0.975,1.801,1.462,3.9,1.462,6.301s-0.487,4.5-1.462,6.3c-0.976,1.8-2.362,3.18-4.163,4.14c-1.8,0.961-3.899,1.44-6.3,1.44
					C1085.1,385.967,1082.977,385.487,1081.162,384.526z M1091.377,379.126c0.885-1.109,1.327-2.789,1.327-5.039
					c0-2.221-0.442-3.893-1.327-5.018s-2.168-1.688-3.848-1.688c-1.71,0-3.015,0.562-3.915,1.688
					c-0.899,1.125-1.35,2.797-1.35,5.018c0,4.47,1.755,6.704,5.265,6.704C1089.209,380.791,1090.492,380.236,1091.377,379.126z"/>
				<path class="st12" d="M1126.004,371.791v13.815h-6.795v-13.5c0-1.59-0.292-2.752-0.877-3.487s-1.508-1.103-2.768-1.103
					c-1.501,0-2.7,0.48-3.601,1.439c-0.899,0.961-1.35,2.25-1.35,3.87v12.78h-6.795v-16.29c0-2.43-0.12-4.604-0.36-6.525h6.391
					l0.449,3.601c0.811-1.351,1.868-2.385,3.173-3.105c1.305-0.72,2.782-1.08,4.433-1.08
					C1123.305,362.206,1126.004,365.401,1126.004,371.791z"/>
				<path class="st12" d="M1151.878,385.606v-26.325h-10.035v-5.715h27.18v5.715h-10.035v26.325H1151.878z"/>
				<path class="st12" d="M1184.368,362.701l-0.045,6.21c-1.11-0.51-2.221-0.765-3.33-0.765c-1.8,0-3.173,0.488-4.118,1.463
					c-0.944,0.975-1.417,2.333-1.417,4.072v11.925h-6.795v-16.29c0-2.43-0.12-4.604-0.36-6.525h6.391l0.449,3.915
					c0.57-1.439,1.463-2.542,2.678-3.307c1.215-0.766,2.588-1.148,4.117-1.148C1182.897,362.251,1183.708,362.402,1184.368,362.701z
					"/>
				<path class="st12" d="M1186.887,352.081h7.245v6.391h-7.245V352.081z M1187.112,385.606v-22.815h6.795v22.815H1187.112z"/>
				<path class="st12" d="M1222.527,362.791v21.78c0,3.63-1.051,6.391-3.15,8.28s-5.16,2.835-9.18,2.835
					c-3.63,0-6.78-0.705-9.45-2.115l1.035-5.04c2.76,1.38,5.49,2.07,8.19,2.07c1.949,0,3.404-0.458,4.364-1.373
					s1.44-2.303,1.44-4.162v-3.96c-0.72,1.11-1.726,2.033-3.015,2.768c-1.291,0.735-2.716,1.103-4.275,1.103
					c-1.98,0-3.735-0.473-5.265-1.418c-1.53-0.944-2.73-2.279-3.601-4.005c-0.87-1.725-1.305-3.712-1.305-5.962
					s0.435-4.237,1.305-5.963c0.87-1.725,2.07-3.06,3.601-4.005c1.529-0.945,3.284-1.418,5.265-1.418c1.59,0,3.029,0.346,4.32,1.035
					c1.289,0.69,2.279,1.62,2.97,2.79v-3.24H1222.527z M1214.359,378.159c0.945-1.095,1.418-2.617,1.418-4.567
					c0-1.92-0.466-3.428-1.396-4.522s-2.234-1.643-3.915-1.643c-1.68,0-3,0.548-3.96,1.643s-1.439,2.603-1.439,4.522
					s0.479,3.436,1.439,4.545c0.96,1.11,2.28,1.665,3.96,1.665C1212.117,379.802,1213.415,379.255,1214.359,378.159z"/>
				<path class="st12" d="M1232.494,384.526c-1.815-0.96-3.211-2.34-4.186-4.14s-1.462-3.899-1.462-6.3s0.487-4.5,1.462-6.301
					c0.975-1.8,2.37-3.18,4.186-4.14c1.814-0.96,3.938-1.44,6.367-1.44c2.4,0,4.5,0.48,6.3,1.44c1.801,0.96,3.188,2.34,4.163,4.14
					c0.975,1.801,1.462,3.9,1.462,6.301s-0.487,4.5-1.462,6.3c-0.976,1.8-2.362,3.18-4.163,4.14c-1.8,0.961-3.899,1.44-6.3,1.44
					C1236.432,385.967,1234.309,385.487,1232.494,384.526z M1242.709,379.126c0.885-1.109,1.327-2.789,1.327-5.039
					c0-2.221-0.442-3.893-1.327-5.018s-2.168-1.688-3.848-1.688c-1.71,0-3.015,0.562-3.915,1.688
					c-0.899,1.125-1.35,2.797-1.35,5.018c0,4.47,1.755,6.704,5.265,6.704C1240.541,380.791,1241.824,380.236,1242.709,379.126z"/>
			</g>
		</g>
	</g>
	<g id="mk_3_square">
		<defs>
			<rect id="outline_2_" x="1768" y="-2" width="750" height="752"/>
		</defs>
		<clipPath id="outline_7_">
			<use xlink:href="#outline_2_"  style="overflow:visible;"/>
		</clipPath>
		<g id="diagonal_1_" class="st2">
			<polygon id="triangle_3_" class="st9" points="1949.979,755 1359.999,755 1933.666,-5 2523.648,-5 			"/>
		</g>
		<g id="blue_3_" class="st2">
			<path class="st43" d="M432.707,669.502l181.891-240.2c33.205-46.746,32.219-64.776,0-110.333L432.707,70.441
				C402.444,25.125,439.012-50,502.059-50h1361.497c46.024,0,71.559,15.732,93.625,42.842L2213.5,341.515
				c29.25,38.5,28.381,26.78-1,66.993l-255.319,335.828c-28.898,38.777-53.699,55.664-93.625,55.664H514.877
				C433.336,800,395.195,722.777,432.707,669.502z"/>
		</g>
	</g>
</g>
</svg>
