<?xml version="1.0" encoding="utf-8"?>
<!-- Generator: Adobe Illustrator 16.0.0, SVG Export Plug-In . SVG Version: 6.00 Build 0)  -->
<!DOCTYPE svg PUBLIC "-//W3C//DTD SVG 1.1//EN" "http://www.w3.org/Graphics/SVG/1.1/DTD/svg11.dtd" [
	<!ENTITY ns_flows "http://ns.adobe.com/Flows/1.0/">
	<!ENTITY ns_extend "http://ns.adobe.com/Extensibility/1.0/">
	<!ENTITY ns_ai "http://ns.adobe.com/AdobeIllustrator/10.0/">
	<!ENTITY ns_graphs "http://ns.adobe.com/Graphs/1.0/">
	<!ENTITY ns_vars "http://ns.adobe.com/Variables/1.0/">
	<!ENTITY ns_imrep "http://ns.adobe.com/ImageReplacement/1.0/">
	<!ENTITY ns_sfw "http://ns.adobe.com/SaveForWeb/1.0/">
	<!ENTITY ns_custom "http://ns.adobe.com/GenericCustomNamespace/1.0/">
	<!ENTITY ns_adobe_xpath "http://ns.adobe.com/XPath/1.0/">
]>
<svg version="1.1" xmlns:x="&ns_extend;" xmlns:i="&ns_ai;" xmlns:graph="&ns_graphs;"
	 xmlns="http://www.w3.org/2000/svg" xmlns:xlink="http://www.w3.org/1999/xlink" xmlns:a="http://ns.adobe.com/AdobeSVGViewerExtensions/3.0/"
	 x="0px" y="0px" width="1536px" height="510px" viewBox="0 0 1536 510" style="enable-background:new 0 0 1536 510;"
	 xml:space="preserve">
<style type="text/css">
<![CDATA[
	.st0{display:none;clip-path:url(#SVGID_2_);}
	.st1{display:none;fill:#FCFCFC;}
	.st2{fill:#ABDDC6;}
	.st3{fill:#495153;}
	.st4{display:none;clip-path:url(#SVGID_2_);fill:#6E93C6;}
	.st5{font-family:'OpenSans-Bold';}
	.st6{fill:#E9EDEE;}
	.st7{fill:#82CCAA;}
	.st8{font-family:'UniSansHeavyCAPS';}
	.st9{fill:#1C56A6;}
	.st10{font-family:'OpenSans';}
	.st11{fill:#F6F8F8;}
	.st12{display:none;fill:#495153;}
	.st13{fill:#FCFCFC;}
	.st14{fill:#FFFFFF;}
	.st15{fill:none;}
	.st16{clip-path:url(#SVGID_2_);fill:#C1D0E6;}
	.st17{display:inline;}
	.st18{display:inline;fill:#6E93C6;}
	.st19{clip-path:url(#SVGID_2_);fill:#97B2D6;}
	.st20{letter-spacing:1;}
	.st21{display:inline;fill:#3C4344;}
	.st22{font-size:19;}
	.st23{font-size:38;}
	.st24{font-size:60;}
	.st25{display:none;fill:#586265;}
	.st26{fill:#3C4344;}
	.st27{display:none;}
	.st28{clip-path:url(#SVGID_2_);fill:#6E93C6;}
	.st29{display:inline;fill:#495153;}
	.st30{fill:#4574B6;}
]]>
</style>
<metadata>
	<sfw  xmlns="&ns_sfw;">
		<slices></slices>
		<sliceSourceBounds  x="-923.999" y="-521.692" width="2944.999" height="864.05" bottomLeftOrigin="true"></sliceSourceBounds>
	</sfw>
</metadata>
<g id="Layer_1">
	<g id="grey" class="st27">
		<polygon class="st21" points="1682.897,261.291 1493.979,517 900.07,517 906.367,-11 1489.257,-11 		"/>
		<polygon class="st29" points="1393.449,256.567 1195.085,517 601.177,517 607.474,-11 1190.363,-11 		"/>
		<polygon class="st21" points="1099.277,256.567 900.913,517 307.002,517 313.3,-11 896.191,-11 		"/>
		<polygon class="st29" points="805.104,256.567 606.741,517 12.832,517 19.128,-11 602.018,-11 		"/>
		<polygon class="st7" points="173.073,255.387 -27.651,517 -621.562,517 -615.265,-11 -24.109,-11 		"/>
	</g>
	<g id="diagonal">
		<polygon class="st26" points="607,517 297,517 697,-11 1007,-11 		"/>
		<polygon class="st3" points="911,517 601,517 1001,-11 1311,-11 		"/>
		<polygon class="st3" points="1513,517 1203,517 1603,-11 1913,-11 		"/>
		<polygon class="st26" points="1210,517 900,517 1300,-11 1610,-11 		"/>
	</g>
	<g id="diagonal_light">
		<g id="small">
			<polygon class="st6" points="607,517 297,517 697,-11 1007,-11 			"/>
			<polygon class="st11" points="911,517 601,517 1001,-11 1311,-11 			"/>
			<polygon class="st11" points="1513,517 1203,517 1603,-11 1913,-11 			"/>
			<polygon class="st6" points="1210,517 900,517 1300,-11 1610,-11 			"/>
		</g>
		<g id="big">
			<polygon class="st6" points="907.98,517 470,517 867.668,-11 1305.649,-11 			"/>
			<polygon class="st11" points="1193.98,517 763,517 1160.668,-11 1591.649,-11 			"/>
			<polygon class="st6" points="1584.98,516 1147,516 1544.668,-12 1982.649,-12 			"/>
		</g>
	</g>
	<g id="line">
		<rect x="306" y="195" class="st12" width="852" height="120"/>
		<polygon class="st25" points="805.551,256.015 760.604,315 1436,315 1436,195 759.222,195 		"/>
		<polygon class="st12" points="1099.551,256.015 1054.604,315 1730,315 1730,195 1053.222,195 		"/>
		<polygon class="st25" points="1390.551,256.015 1345.604,315 2021,315 2021,195 1344.222,195 		"/>
		<rect id="whole" x="306" y="195" class="st25" width="1405" height="120"/>
		<rect id="whole_white_1_" x="304" y="195" class="st1" width="1405" height="120"/>
		<rect id="whole_white_shadow" x="304" y="195" class="st13" width="1405" height="120"/>
	</g>
	<polygon class="st11" points="382.98,517 -55,517 342.668,-11 780.649,-11 	"/>
	<polygon class="st30" points="381.531,-9 -843,-9 -843,519 381.531,519 580.469,255 	"/>
	<g id="trail">
		<defs>
			<polygon id="SVGID_1_" points="381.531,-9 -843,-9 -843,519 381.531,519 580.469,255 			"/>
		</defs>
		<clipPath id="SVGID_2_">
			<use xlink:href="#SVGID_1_"  style="overflow:visible;"/>
		</clipPath>
		<polygon class="st4" points="551,315 -18,315 28,254.903 -18,195 551,195 		"/>
		<g id="blue-arrow_1_" class="st0">
			<polygon class="st18" points="-30.452,332 26.26,255.415 -30.452,177 358.173,177 303.657,105 469.273,105 583.375,256.084 
				469.273,405 303.295,405 358.173,332 			"/>
		</g>
		<polygon class="st28" points="236.293,165 304.113,255 236.293,345 601,345 601,165 		"/>
		<rect x="-104" y="195" class="st19" width="608" height="120"/>
		<rect id="core" x="-98" y="221" class="st16" width="611" height="67"/>
	</g>
	<g id="text" class="st27">
		<text id="Hi" transform="matrix(1 0 0 1 601 248)" class="st17"><tspan x="0" y="0" class="st9 st5 st23">Ramon Trigo</tspan><tspan x="0" y="40" class="st10 st22">Designer of clever and intuitive digital experiences</tspan></text>
	</g>
	<text id="text_1_" transform="matrix(1 0 0 1 769 273.2969)" class="st9 st8 st24 st20">Ramon trigo</text>
	<g id="mk2.5">
		<rect id="container" x="309" y="195" class="st15" width="241" height="120"/>
		<g id="blue-arrow_5_">
			<polygon class="st9" points="436.893,312 457.015,285 314.58,285 337.242,254.818 314.649,224 457.049,224 437.06,197 
				503.414,197 547.147,254.908 503.403,312 			"/>
			<path class="st9" d="M502.169,200l41.837,55.397L502.169,310h-60.248l20.122-27H319.548l20.794-28.164L319.548,226h142.496
				l-19.989-26H502 M504.659,195h-2.49h-60.115h-9.989l5.987,7.646L452.055,221H319.548h-9.798l5.749,8.066l18.643,25.794
				l-18.61,25.12l-5.92,8.02h9.936h132.438l-14.051,18.77l-6.071,8.23h10.057h60.248h2.468l1.501-2.177l41.837-54.712l2.313-3.073
				l-2.292-3.062l-41.837-55.193L504.659,195L504.659,195z"/>
		</g>
		<g id="initials_3_">
			<g id="T_10_">
				<path class="st14" d="M522.41,226h-83.2c1.509,2,4.57,8.285-2.185,18.25l16.115,0.313l-25.232,34.174l3.249,4.263h22.522
					l28.192-38h35.172l10.284-12.502L522.41,226z"/>
			</g>
			<g id="R_9_">
				<path class="st14" d="M421.301,226h-7.938h-52.087l-28.255,38.369L319.355,283h28.507l29.985-40h21.011
					c6.584,0,1.984,7.981-5.341,10.748c-1.521,0.575-4.747,0.354-10.045,0.354l-5.068,6.555L395.213,283h28.821l-16.831-22.405
					c10.848-1.537,28.369-18.549,28.369-27.982C435.573,225.866,427.449,226,421.301,226z"/>
			</g>
		</g>
	</g>
</g>
</svg>
