<?xml version="1.0" encoding="utf-8"?>
<!-- Generator: Adobe Illustrator 16.0.0, SVG Export Plug-In . SVG Version: 6.00 Build 0)  -->
<!DOCTYPE svg PUBLIC "-//W3C//DTD SVG 1.1//EN" "http://www.w3.org/Graphics/SVG/1.1/DTD/svg11.dtd" [
	<!ENTITY ns_flows "http://ns.adobe.com/Flows/1.0/">
	<!ENTITY ns_extend "http://ns.adobe.com/Extensibility/1.0/">
	<!ENTITY ns_ai "http://ns.adobe.com/AdobeIllustrator/10.0/">
	<!ENTITY ns_graphs "http://ns.adobe.com/Graphs/1.0/">
]>
<svg version="1.1" xmlns:x="&ns_extend;" xmlns:i="&ns_ai;" xmlns:graph="&ns_graphs;"
	 xmlns="http://www.w3.org/2000/svg" xmlns:xlink="http://www.w3.org/1999/xlink" xmlns:a="http://ns.adobe.com/AdobeSVGViewerExtensions/3.0/"
	 x="0px" y="0px" width="1536px" height="750px" viewBox="0 0 1536 750" style="enable-background:new 0 0 1536 750;"
	 xml:space="preserve">
<style type="text/css">
<![CDATA[
	.st0{display:none;fill:#FCFCFC;}
	.st1{display:inline;fill:#82CCAA;}
	.st2{font-family:'OpenSans-Bold';}
	.st3{fill:#E9EDEE;}
	.st4{font-family:'UniSansHeavyCAPS';}
	.st5{fill:#1C56A6;}
	.st6{font-family:'OpenSans';}
	.st7{clip-path:url(#SVGID_4_);fill:#4574B6;}
	.st8{fill:#F6F8F8;}
	.st9{clip-path:url(#SVGID_4_);}
	.st10{fill:#C1D0E6;}
	.st11{display:none;fill:#495153;}
	.st12{fill:#97B2D6;}
	.st13{fill:#FCFCFC;}
	.st14{fill:#FFFFFF;}
	.st15{fill:none;}
	.st16{clip-path:url(#SVGID_2_);fill:#C1D0E6;}
	.st17{display:inline;}
	.st18{clip-path:url(#SVGID_2_);fill:#97B2D6;}
	.st19{display:none;fill:#1C56A6;}
	.st20{letter-spacing:1;}
	.st21{display:inline;fill:#3C4344;}
	.st22{fill:#6E93C6;}
	.st23{clip-path:url(#SVGID_4_);fill:#C1D0E6;}
	.st24{font-size:19;}
	.st25{font-size:38;}
	.st26{font-size:60;}
	.st27{display:none;fill:#586265;}
	.st28{display:none;}
	.st29{clip-path:url(#SVGID_2_);fill:#6E93C6;}
	.st30{display:inline;fill:#ABDDC6;}
	.st31{display:inline;fill:#495153;}
	.st32{fill:#4574B6;}
]]>
</style>
<g id="Layer_1">
	<g id="linkedin_1_">
		<g id="grey" class="st28">
			<polygon class="st21" points="1682.897,381.291 1493.979,637 900.07,637 906.367,109 1489.257,109 			"/>
			<polygon class="st31" points="1393.449,376.567 1195.085,637 601.177,637 607.474,109 1190.363,109 			"/>
			<polygon class="st21" points="1099.277,376.567 900.913,637 307.002,637 313.3,109 896.191,109 			"/>
			<polygon class="st31" points="805.104,376.567 606.741,637 12.832,637 19.128,109 602.018,109 			"/>
			<polygon class="st1" points="173.073,375.387 -27.651,637 -621.562,637 -615.265,109 -24.109,109 			"/>
		</g>
		<g id="diagonal" class="st28">
			<polygon class="st21" points="607,637 297,637 697,109 1007,109 			"/>
			<polygon class="st31" points="911,637 601,637 1001,109 1311,109 			"/>
			<polygon class="st31" points="1513,637 1203,637 1603,109 1913,109 			"/>
			<polygon class="st21" points="1210,637 900,637 1300,109 1610,109 			"/>
		</g>
		<g id="diagonal_light">
			<g id="small">
				<polygon class="st3" points="553,753 243,753 819,-7 1129,-7 				"/>
				<polygon class="st8" points="857,753 547,753 1123,-7 1433,-7 				"/>
				<polygon class="st8" points="1459,753 1149,753 1725,-7 2035,-7 				"/>
				<polygon class="st3" points="1156,753 846,753 1422,-7 1732,-7 				"/>
			</g>
			<g id="big">
				<polygon class="st3" points="853.98,753 416,753 989.668,-7 1427.649,-7 				"/>
				<polygon class="st8" points="1139.98,753 709,753 1282.668,-7 1713.649,-7 				"/>
				<polygon class="st3" points="1586.98,752 1093,752 1666.668,-8 2160.649,-8 				"/>
			</g>
		</g>
		<g id="line">
			<rect x="306" y="315" class="st11" width="852" height="120"/>
			<polygon class="st27" points="805.551,376.016 760.604,435 1436,435 1436,315 759.222,315 			"/>
			<polygon class="st11" points="1099.551,376.016 1054.604,435 1730,435 1730,315 1053.222,315 			"/>
			<polygon class="st27" points="1390.551,376.016 1345.604,435 2021,435 2021,315 1344.222,315 			"/>
			<rect id="whole" x="306" y="315" class="st27" width="1405" height="120"/>
			<rect id="whole_white_1_" x="304" y="315" class="st0" width="1405" height="120"/>
			<rect id="whole_white_shadow" x="304" y="285" class="st13" width="1405" height="180"/>
		</g>
		<polygon id="triangle" class="st8" points="323.981,753 -266,753 307.668,-7 897.649,-7 		"/>
		<g id="trail">
			<polygon id="blue" class="st32" points="323.265,-4 -813,-4 -813,751 326.531,751 610.469,375.133 			"/>
			<g>
				<defs>
					<polygon id="SVGID_1_" points="378.531,111 -843,111 -843,639 378.531,639 580.25,375 					"/>
				</defs>
				<clipPath id="SVGID_2_">
					<use xlink:href="#SVGID_1_"  style="overflow:visible;"/>
				</clipPath>
				<polygon id="outer" class="st29" points="299.5,285 364.113,375 296.875,465 601,465 601,285 				"/>
				<rect id="inner" x="-104" y="315" class="st18" width="608" height="120"/>
				<rect id="core" x="-98" y="341" class="st16" width="611" height="67"/>
			</g>
		</g>
		<g id="old_text" class="st28">
			<text id="Hi" transform="matrix(1 0 0 1 601 368)" class="st17"><tspan x="0" y="0" class="st5 st2 st25">Ramon Trigo</tspan><tspan x="0" y="40" class="st6 st24">Designer of clever and intuitive digital experiences</tspan></text>
		</g>
		<text id="hi-my-name" transform="matrix(1 0 0 1 743 393.2969)" class="st19 st4 st26 st20">HI, MY NAME’S RAMON</text>
		<text id="name" transform="matrix(1 0 0 1 799 393.2969)" class="st19 st4 st26 st20">Ramon trigo</text>
		<g id="name_outlines">
			<path class="st5" d="M815.14,379.798h-1.92v13.499h-10.86v-42.479h16.979c8.76,0,15.54,4.021,15.779,13.979
				c0,7.86-3.18,12.3-8.339,13.92l11.579,14.579h-13.38L815.14,379.798z M819.52,370.558c6.779,0,6.779-9.72,0-9.72h-6.3v9.72
				H819.52z"/>
			<path class="st5" d="M878.678,393.297h-11.52l-2.76-8.52H853.06l-2.641,8.52h-11.52l14.819-42.479h9.78L878.678,393.297z
				 M861.818,375.237l-2.939-12.419h-0.3l-3.12,12.419H861.818z"/>
			<path class="st5" d="M883,350.818h10.739l8.939,20.76l9-20.76h10.739v42.479h-10.8l0.061-12.239l0.659-8.58l-0.359-0.06
				l-5.58,14.579h-7.38l-5.699-14.579l-0.3,0.06l0.72,8.58v12.239H883V350.818z"/>
			<path class="st5" d="M929.619,364.798c0-9.779,8.76-14.579,17.579-14.579c8.82,0,17.64,4.859,17.64,14.579v14.52
				c0,9.72-8.76,14.579-17.579,14.579c-8.82,0-17.64-4.859-17.64-14.579V364.798z M940.358,379.317c0,3.12,3.48,4.62,6.9,4.62
				s6.84-1.561,6.84-4.62v-14.52c0-3.3-3.54-4.8-7.021-4.8c-3.359,0-6.72,1.68-6.72,4.8V379.317z"/>
			<path class="st5" d="M972.039,350.818h10.199l10.26,18.119l3.6,8.52l0.3-0.06c-0.06,0-1.14-7.319-1.2-7.319v-19.26h10.68v42.479
				h-10.859l-9.6-16.739l-3.72-8.52l-0.3,0.06l1.38,8.22v16.979h-10.739V350.818z"/>
			<path class="st5" d="M1044.878,360.958v32.339h-10.86v-32.339h-11.279v-10.199h33.419v10.199H1044.878z"/>
			<path class="st5" d="M1074.638,379.798h-1.92v13.499h-10.86v-42.479h16.979c8.76,0,15.54,4.021,15.779,13.979
				c0,7.86-3.18,12.3-8.339,13.92l11.579,14.579h-13.38L1074.638,379.798z M1079.018,370.558c6.779,0,6.779-9.72,0-9.72h-6.3v9.72
				H1079.018z"/>
			<path class="st5" d="M1112.857,393.297h-10.74v-42.479h10.74V393.297z"/>
			<path class="st5" d="M1142.616,363.418c-2.341-5.699-11.82-4.38-11.82,1.2v14.579c0,6.66,12.42,6.6,12.42,0v-1.56h-6.78v-9h17.1
				v10.56c0,9.779-8.159,14.699-16.679,14.699c-8.4,0-16.8-4.92-16.8-14.699v-14.579c0-9.6,8.399-14.399,16.8-14.399
				c5.52,0,11.819,2.279,14.759,9.06L1142.616,363.418z"/>
			<path class="st5" d="M1158.996,364.798c0-9.779,8.76-14.579,17.579-14.579c8.82,0,17.64,4.859,17.64,14.579v14.52
				c0,9.72-8.76,14.579-17.579,14.579c-8.82,0-17.64-4.859-17.64-14.579V364.798z M1169.735,379.317c0,3.12,3.48,4.62,6.9,4.62
				s6.84-1.561,6.84-4.62v-14.52c0-3.3-3.54-4.8-7.021-4.8c-3.359,0-6.72,1.68-6.72,4.8V379.317z"/>
		</g>
		<g id="logo_mk2.5">
			<rect id="container" x="339" y="315" class="st15" width="241" height="120"/>
			<g id="blue-arrow_5_">
				<polygon class="st5" points="466.893,432 487.015,405 344.58,405 367.242,374.818 344.649,344 487.049,344 467.06,317 
					533.414,317 577.147,374.909 533.403,432 				"/>
				<path class="st5" d="M532.169,320l41.837,55.398L532.169,430h-60.248l20.122-27H349.548l20.794-28.164L349.548,346h142.496
					l-19.989-26H532 M534.659,315h-2.49h-60.115h-9.989l5.987,7.646L482.055,341H349.548h-9.798l5.749,8.066l18.643,25.795
					l-18.61,25.12l-5.92,8.019h9.936h132.438l-14.051,18.77l-6.071,8.23h10.057h60.248h2.468l1.501-2.177l41.837-54.71l2.313-3.074
					l-2.292-3.062l-41.837-55.194L534.659,315L534.659,315z"/>
			</g>
			<g id="initials_3_">
				<g id="T_10_">
					<path class="st14" d="M552.41,346h-83.2c1.509,2,4.57,8.285-2.185,18.25l16.115,0.314l-25.232,34.174l3.249,4.262h22.522
						l28.192-38h35.172l10.284-12.502L552.41,346z"/>
				</g>
				<g id="R_9_">
					<path class="st14" d="M451.301,346h-7.938h-52.087l-28.255,38.368L349.355,403h28.507l29.985-40h21.011
						c6.584,0,1.984,7.982-5.341,10.748c-1.521,0.576-4.747,0.354-10.045,0.354l-5.068,6.554L425.213,403h28.821l-16.831-22.405
						c10.848-1.537,28.369-18.548,28.369-27.981C465.573,345.867,457.449,346,451.301,346z"/>
				</g>
			</g>
		</g>
	</g>
</g>
</svg>
