<?xml version="1.0" encoding="utf-8"?>
<!-- Generator: Adobe Illustrator 16.0.0, SVG Export Plug-In . SVG Version: 6.00 Build 0)  -->
<!DOCTYPE svg PUBLIC "-//W3C//DTD SVG 1.1//EN" "http://www.w3.org/Graphics/SVG/1.1/DTD/svg11.dtd">
<svg version="1.1" id="Layer_1" xmlns="http://www.w3.org/2000/svg" xmlns:xlink="http://www.w3.org/1999/xlink" x="0px" y="0px"
	 width="1600px" height="1600px" viewBox="0 0 1600 1600" enable-background="new 0 0 1600 1600" xml:space="preserve">
<g id="mk3_1_">
	<g id="inverse_rounded_square_1_">
		<rect id="bg_8_" x="1" fill="#1C56A6" width="1600" height="1600"/>
		<g id="logo_4_">
			<path id="outline_3_" fill="#FFFFFF" d="M146.508,1018.864l135.25-179.149c24.688-34.756,23.954-48.436,0-82.309L146.508,573.08
				c-22.505-33.695,4.688-89.08,51.566-89.08h1012.38c34.22,0,53.206,11.09,69.615,31.238l178.146,242.135
				c20.785,28.627,20.755,51.273,0,81.98l-178.146,235.239c-21.489,28.836-39.928,42.407-69.615,42.407H207.604
				C146.975,1117,118.612,1058.488,146.508,1018.864z"/>
			<g id="initials_11_">
				<polygon fill="#1C56A6" points="824,587 824,666 940,666 940,1012 1035,1012 1035,666 1147,666 1147,587 				"/>
				<path fill="#1C56A6" d="M461,1012V587h201.6c56.332,0,121.901,56.504,121.901,136.92c0,116.295-101.752,132.197-101.752,132.197
					L793.981,1012H678.48l-98.748-146H558v146H461z M558,674v112h72.133c40.924,0,55.143-32.297,55.143-60.422
					c0-20.701-22.909-51.578-55.143-51.578H558z"/>
			</g>
		</g>
	</g>
</g>
</svg>
